# xmcd
#
# Track frame offsets: 
#        150
#        14797
#        31654
#        53330
#        68970
#        82198
#        98878
#        116320
#        131929
#        150335
#        164700
#        180950
#        199262
#        219670
#        244341
#
# Disc length: 3528 seconds
#
# Revision: 0
# Processed by: cddbd v1.5.2PL0 Copyright (c) Steve Scherf et al.
# Submitted via: ExactAudioCopy v1.0b1
#
DISCID=ce0dc60f
DTITLE=Peter Viskinde Band - i Live
DYEAR=2011
DGENRE=Rock
TTITLE0=Take My Blues Away
TTITLE1=Slår dig løs
TTITLE2=No Peace Like in Heaven
TTITLE3=Good Times
TTITLE4=Trying To Get Over You
TTITLE5=Baby Blue
TTITLE6=Fight for Your Love
TTITLE7=Whenever You're Ready
TTITLE8=Someone Like You
TTITLE9=Animal
TTITLE10=My Heart Belongs To You
TTITLE11=Empty House
TTITLE12=Rock the Rock
TTITLE13=Baby Let Me Follow You Down
TTITLE14=Savner en som dig
EXTD=
EXTT0=
EXTT1=
EXTT2=
EXTT3=
EXTT4=
EXTT5=
EXTT6=
EXTT7=
EXTT8=
EXTT9=
EXTT10=
EXTT11=
EXTT12=
EXTT13=
EXTT14=
PLAYORDER=
